<svg xmlns="http://www.w3.org/2000/svg" width="12" height="12" viewBox="0 0 24 24" fill="none">
  <defs>
    <!-- Parchment gradient -->
    <linearGradient id="parchmentGrad" x1="0%" y1="0%" x2="100%" y2="100%">
      <stop offset="0%" style="stop-color:#f4f1e8;stop-opacity:1" />
      <stop offset="50%" style="stop-color:#e8e2d0;stop-opacity:1" />
      <stop offset="100%" style="stop-color:#d4c7a8;stop-opacity:1" />
    </linearGradient>
    <!-- Wood rod gradient -->
    <linearGradient id="woodGrad" x1="0%" y1="0%" x2="100%" y2="0%">
      <stop offset="0%" style="stop-color:#8b4513;stop-opacity:1" />
      <stop offset="50%" style="stop-color:#a0522d;stop-opacity:1" />
      <stop offset="100%" style="stop-color:#8b4513;stop-opacity:1" />
    </linearGradient>
  </defs>
  
  <!-- Scroll paper -->
  <path d="M5 6 Q5 4 7 4 L17 4 Q19 4 19 6 L19 18 Q19 20 17 20 L7 20 Q5 20 5 18 Z" fill="url(#parchmentGrad)" stroke="#d4c7a8" stroke-width="0.5"/>
  
  <!-- Left scroll rod -->
  <rect x="3" y="2" width="2" height="20" fill="url(#woodGrad)" rx="1"/>
  <circle cx="4" cy="2" r="1" fill="#654321"/>
  <circle cx="4" cy="22" r="1" fill="#654321"/>
  
  <!-- Right scroll rod -->
  <rect x="19" y="2" width="2" height="20" fill="url(#woodGrad)" rx="1"/>
  <circle cx="20" cy="2" r="1" fill="#654321"/>
  <circle cx="20" cy="22" r="1" fill="#654321"/>
  
  <!-- Text lines on scroll -->
  <line x1="8" y1="8" x2="16" y2="8" stroke="#8b4513" stroke-width="0.8" opacity="0.8"/>
  <line x1="8" y1="11" x2="15" y2="11" stroke="#8b4513" stroke-width="0.8" opacity="0.8"/>
  <line x1="8" y1="14" x2="16" y2="14" stroke="#8b4513" stroke-width="0.8" opacity="0.8"/>
  <line x1="8" y1="17" x2="14" y2="17" stroke="#8b4513" stroke-width="0.8" opacity="0.8"/>
  
  <!-- Scroll edges (curved paper) -->
  <path d="M5 6 Q3 6 3 8 Q3 16 3 16 Q3 18 5 18" fill="url(#parchmentGrad)" stroke="#d4c7a8" stroke-width="0.5"/>
  <path d="M19 6 Q21 6 21 8 Q21 16 21 16 Q21 18 19 18" fill="url(#parchmentGrad)" stroke="#d4c7a8" stroke-width="0.5"/>
</svg>